<svg xmlns="http://www.w3.org/2000/svg" version="1.1" xmlns:xlink="http://www.w3.org/1999/xlink" xmlns:svgjs="http://svgjs.dev/svgjs" width="1920" height="1200" preserveAspectRatio="none" viewBox="0 0 1920 1200"><g mask="url(&quot;#SvgjsMask1015&quot;)" fill="none"><rect width="1920" height="1200" x="0" y="0" fill="#0e2a47"></rect><path d="M404.3063249446617 668.2079485177588L547.7595497829138 547.83640046479 427.388001729945 404.38317562653793 283.9347768916929 524.7547236795067z" fill="rgba(28, 83, 142, 0.4)" class="triangle-float2"></path><path d="M1516.525067185199 96.95555359662902L1319.7854688160967 86.64486814906697 1309.4747833685346 283.3844665181693 1506.214381737637 293.6951519657313z" fill="rgba(28, 83, 142, 0.4)" class="triangle-float1"></path><path d="M235.144,725.489C302.368,724.505,361.756,687.087,397.319,630.032C435.329,569.05,454.944,492.473,419.262,430.1C383.392,367.4,307.364,348.036,235.144,346.552C159.525,344.998,75.951,357.16,37.436,422.254C-1.563,488.167,22.706,570.749,64.534,634.903C102.226,692.713,166.139,726.499,235.144,725.489" fill="rgba(28, 83, 142, 0.4)" class="triangle-float3"></path><path d="M1644.381,617.795C1680.714,615.84,1704.807,584.315,1722.606,552.58C1739.894,521.755,1751.916,486.08,1735.932,454.559C1718.571,420.323,1682.763,398.892,1644.381,398.322C1605.01,397.737,1567.663,417.656,1547.993,451.766C1528.34,485.847,1530.319,527.841,1550.072,561.865C1569.74,595.743,1605.265,619.9,1644.381,617.795" fill="rgba(28, 83, 142, 0.4)" class="triangle-float1"></path><path d="M1146.6434338753777-79.44554901338402L925.8989011935873 112.44474569233692 1117.7891958993084 333.1892783741272 1338.5337285810986 141.29898366840627z" fill="rgba(28, 83, 142, 0.4)" class="triangle-float2"></path><path d="M1412.0868376796388 1123.0595639669473L1521.779355438694 925.1690235336529 1323.8888150053997 815.4765057745976 1214.1962972463443 1013.3670462078921z" fill="rgba(28, 83, 142, 0.4)" class="triangle-float1"></path><path d="M64.10138813103335 918.1593308572222L46.99382698084193 1244.5910435576934 373.4255396813131 1261.698604707885 390.53310083150456 935.2668920074136z" fill="rgba(28, 83, 142, 0.4)" class="triangle-float2"></path><path d="M1666.6044904127366 1159.3980402934274L1804.9282686184188 862.7617406603123 1508.2919689853038 724.43796245463 1369.9681907796216 1021.0742620877451z" fill="rgba(28, 83, 142, 0.4)" class="triangle-float3"></path><path d="M212.04330679829866 43.28248688342043L471.7142104143005 98.7359465649797 403.8513761830384-123.23338247809875z" fill="rgba(28, 83, 142, 0.4)" class="triangle-float2"></path><path d="M202.65099387525945 751.5597866987678L442.6759510018951 802.5786663005997 493.69483060372704 562.5537091739641 253.6698734770914 511.53482957213214z" fill="rgba(28, 83, 142, 0.4)" class="triangle-float2"></path><path d="M1451.497675006222 154.30954110825522L1569.7917576097122 396.8483531062901 1812.330569607747 278.55427050279985 1694.0364870042567 36.015458504764965z" fill="rgba(28, 83, 142, 0.4)" class="triangle-float2"></path><path d="M1965.681,1009.459C2054.661,1011.986,2154.668,1005.398,2201.789,929.877C2250.799,851.329,2229.39,747.802,2176.241,671.993C2130.125,606.216,2045.983,590.913,1965.681,593.105C1890.119,595.168,1815.79,619.895,1774.134,682.971C1727.828,753.087,1709.191,844.62,1751.711,917.095C1793.844,988.91,1882.453,1007.095,1965.681,1009.459" fill="rgba(28, 83, 142, 0.4)" class="triangle-float3"></path><path d="M295.41650696888155 356.8789671754358L63.8996255479868 377.1340697146397 315.67160950808545 588.3958485963306z" fill="rgba(28, 83, 142, 0.4)" class="triangle-float1"></path><path d="M161.733,1182.674C238.782,1179.25,303.569,1127.802,338.808,1059.198C371.092,996.348,361.529,923.197,326.549,861.807C291.167,799.711,233.165,750.728,161.733,748.432C86.506,746.014,17.619,786.915,-22.512,850.59C-65.708,919.128,-84.176,1005.405,-44.872,1076.247C-4.59,1148.852,78.784,1186.36,161.733,1182.674" fill="rgba(28, 83, 142, 0.4)" class="triangle-float2"></path><path d="M1212.0100788505715 31.865330901406907L868.5200834580521 1.8138502699895724 838.4686028266348 345.30384566250893 1181.9585982191543 375.3553262939263z" fill="rgba(28, 83, 142, 0.4)" class="triangle-float2"></path><path d="M274.0879315258002 460.0379998027706L-40.52169909950942 363.85218303823734-136.7075158640427 678.461813663547 177.9021147612669 774.6476304280802z" fill="rgba(28, 83, 142, 0.4)" class="triangle-float1"></path><path d="M476.627,114.787C511.666,113.848,541.857,92.788,559.729,62.634C578.003,31.802,583.809,-5.86,566.848,-37.434C549.016,-70.628,514.308,-91.888,476.627,-92.06C438.656,-92.234,403.824,-71.223,384.965,-38.266C366.233,-5.53,366.056,34.947,385.435,67.305C404.308,98.818,439.908,115.771,476.627,114.787" fill="rgba(28, 83, 142, 0.4)" class="triangle-float3"></path><path d="M1773.8015735908773 1181.106074036672L1905.5745788039824 1024.0651216670185 1604.1266476429496 904.9260900321877z" fill="rgba(28, 83, 142, 0.4)" class="triangle-float1"></path></g><defs><mask id="SvgjsMask1015"><rect width="1920" height="1200" fill="#ffffff"></rect></mask><style>
                @keyframes float1 {
                    0%{transform: translate(0, 0)}
                    50%{transform: translate(-10px, 0)}
                    100%{transform: translate(0, 0)}
                }

                .triangle-float1 {
                    animation: float1 5s infinite;
                }

                @keyframes float2 {
                    0%{transform: translate(0, 0)}
                    50%{transform: translate(-5px, -5px)}
                    100%{transform: translate(0, 0)}
                }

                .triangle-float2 {
                    animation: float2 4s infinite;
                }

                @keyframes float3 {
                    0%{transform: translate(0, 0)}
                    50%{transform: translate(0, -10px)}
                    100%{transform: translate(0, 0)}
                }

                .triangle-float3 {
                    animation: float3 6s infinite;
                }
            </style></defs></svg>