<svg xmlns="http://www.w3.org/2000/svg" version="1.1" xmlns:xlink="http://www.w3.org/1999/xlink" xmlns:svgjs="http://svgjs.dev/svgjs" width="1920" height="1200" preserveAspectRatio="none" viewBox="0 0 1920 1200"><g mask="url(&quot;#SvgjsMask1061&quot;)" fill="none"><rect width="1920" height="1200" x="0" y="0" fill="rgba(113, 113, 113, 0.9)"></rect><path d="M1070.7526896474155 802.0869678613312L930.4864923246422 1065.889317359762 1334.5550391458462 942.3531651841046z" fill="rgba(14, 79, 145, 0.4)" class="triangle-float2"></path><path d="M1146.51210458239 235.69079060060213L1080.9040078986332 45.15104254802867 827.8984341616514 238.83306159995067z" fill="rgba(14, 79, 145, 0.4)" class="triangle-float1"></path><path d="M401.006,1059.07C483.87,1061.176,567.701,1029.523,609.948,958.206C652.912,885.678,639.034,797.377,600.417,722.443C557.566,639.293,494.516,555.234,401.006,552.771C304.573,550.231,224.561,624.608,182.532,711.437C145.462,788.02,164.408,875.997,209.681,948.035C251.734,1014.949,322.001,1057.062,401.006,1059.07" fill="rgba(14, 79, 145, 0.4)" class="triangle-float3"></path><path d="M659.7727367021132 374.83525333049363L838.6322147850083 240.0549692218561 703.8519306763708 61.195491138961074 524.9924525934757 195.97577524759856z" fill="rgba(14, 79, 145, 0.4)" class="triangle-float2"></path><path d="M1299.012,1197.697C1405.304,1202.816,1520.407,1168.317,1570.061,1074.197C1617.607,984.072,1561.606,883.755,1511.418,795.074C1460.103,704.402,1403.126,599.146,1299.012,595.261C1190.789,591.223,1106.006,681.424,1057.252,778.127C1013.464,864.981,1021.14,965.82,1069.702,1050.098C1118.344,1134.515,1201.697,1193.01,1299.012,1197.697" fill="rgba(14, 79, 145, 0.4)" class="triangle-float1"></path><path d="M574.7529391838955 1018.1367375825516L651.9128894943017 765.7579120676528 322.37411366899664 940.9767872721454z" fill="rgba(14, 79, 145, 0.4)" class="triangle-float1"></path><path d="M1904.2115186539909 242.56499398421136L1696.4433196706868 264.40231165087846 1926.048836320658 450.3331929675155z" fill="rgba(14, 79, 145, 0.4)" class="triangle-float1"></path><path d="M34.121,1086.185C76.071,1083.593,102.251,1046.172,123.876,1010.132C146.44,972.527,172.738,928.912,151.519,890.532C129.922,851.468,78.66,844.842,34.121,847.784C-4.791,850.354,-38.229,871.552,-59.173,904.448C-82.095,940.451,-96.642,984.584,-77.15,1022.554C-56.236,1063.294,-11.586,1089.009,34.121,1086.185" fill="rgba(14, 79, 145, 0.4)" class="triangle-float1"></path><path d="M727.4050061361129 288.87569692729403L549.098490519075 43.4578325297922 303.68062612157314 221.7643481468301 481.98714173861106 467.18221254433195z" fill="rgba(14, 79, 145, 0.4)" class="triangle-float2"></path><path d="M1716.2587385398147 213.27035305503736L1939.861438208649 388.31135895378026 1978.693513611485 143.135284061148z" fill="rgba(14, 79, 145, 0.4)" class="triangle-float1"></path><path d="M306.21364236763804 1258.6272153024108L399.1461224079345 1028.6112556993007 169.1301628048244 935.6787756590043 76.19768276452794 1165.6947352621144z" fill="rgba(14, 79, 145, 0.4)" class="triangle-float3"></path><path d="M1786.5503130636514 527.3287028471786L1859.273753738937 155.09336297085918 1543.9566088297888 257.546113911767z" fill="rgba(14, 79, 145, 0.4)" class="triangle-float2"></path><path d="M1697.528,206.453C1741.409,205.059,1768.325,163.194,1789.121,124.529C1808.482,88.532,1823.016,46.393,1802.691,10.932C1782.284,-24.671,1738.564,-34.976,1697.528,-35.272C1655.832,-35.573,1611.574,-26.106,1589.701,9.393C1566.945,46.324,1574.447,92.631,1595.27,130.686C1617.096,170.574,1652.082,207.896,1697.528,206.453" fill="rgba(14, 79, 145, 0.4)" class="triangle-float1"></path><path d="M1620.4397609788534 369.4351923556009L1327.308465504963 251.00246137111478 1208.8757345204767 544.1337568450052 1502.0070299943673 662.5664878294913z" fill="rgba(14, 79, 145, 0.4)" class="triangle-float3"></path><path d="M300.376,231.555C350.561,232.061,400.548,208.785,423.678,164.245C445.43,122.358,428.248,73.69,403.099,33.75C379.925,-3.053,343.837,-29.971,300.376,-31.574C253.959,-33.286,207.991,-13.896,183.637,25.657C158.131,67.08,157.316,119.483,181.309,161.8C205.625,204.687,251.078,231.058,300.376,231.555" fill="rgba(14, 79, 145, 0.4)" class="triangle-float2"></path></g><defs><mask id="SvgjsMask1061"><rect width="1920" height="1200" fill="#ffffff"></rect></mask><style>
                @keyframes float1 {
                    0%{transform: translate(0, 0)}
                    50%{transform: translate(-10px, 0)}
                    100%{transform: translate(0, 0)}
                }

                .triangle-float1 {
                    animation: float1 5s infinite;
                }

                @keyframes float2 {
                    0%{transform: translate(0, 0)}
                    50%{transform: translate(-5px, -5px)}
                    100%{transform: translate(0, 0)}
                }

                .triangle-float2 {
                    animation: float2 4s infinite;
                }

                @keyframes float3 {
                    0%{transform: translate(0, 0)}
                    50%{transform: translate(0, -10px)}
                    100%{transform: translate(0, 0)}
                }

                .triangle-float3 {
                    animation: float3 6s infinite;
                }
            </style></defs></svg>