<svg xmlns="http://www.w3.org/2000/svg" version="1.1" xmlns:xlink="http://www.w3.org/1999/xlink" xmlns:svgjs="http://svgjs.dev/svgjs" width="1920" height="1000" preserveAspectRatio="none" viewBox="0 0 1920 1000"><g mask="url(&quot;#SvgjsMask1021&quot;)" fill="none"><rect width="1920" height="1000" x="0" y="0" fill="#0e2a47"></rect><path d="M1287.3824997902007 491.16282062098446L1368.6084405444476 316.9732285486025 1194.4188484720655 235.74728779435557 1113.1929077178188 409.9368798667375z" fill="rgba(28, 83, 142, 0.4)" class="triangle-float2"></path><path d="M361.457,295.351C436.476,296.775,521.778,294.713,561.366,230.974C602.359,164.973,575.895,81.443,535.558,15.039C497.044,-48.365,435.586,-95.243,361.457,-98.125C282.088,-101.21,202.158,-68.131,162.217,0.525C122.078,69.521,129.581,157.49,174.275,223.626C214.374,282.962,289.855,293.992,361.457,295.351" fill="rgba(28, 83, 142, 0.4)" class="triangle-float1"></path><path d="M96.45147482391796 832.750597698738L101.54655726352345 555.9701906678424-112.11845857878583 669.5778948072978z" fill="rgba(28, 83, 142, 0.4)" class="triangle-float2"></path><path d="M1516.764498216015 43.979412039361286L1351.7633465117444 55.51741654504848 1451.5709291224107 297.2501418486108z" fill="rgba(28, 83, 142, 0.4)" class="triangle-float3"></path><path d="M69.38275756717815 61.07501263349752L261.7016732460388 167.67912835987167 368.305788972413-24.639787318988994 175.9868732935523-131.24390304536314z" fill="rgba(28, 83, 142, 0.4)" class="triangle-float3"></path><path d="M534.4262601210881 315.64989033471375L325.20734144965076 133.7786590333814 352.55502881975576 524.8688090061512z" fill="rgba(28, 83, 142, 0.4)" class="triangle-float1"></path><path d="M1677.5714247027063 184.6294452575485L1757.162701610765 462.1972139504535 2034.73047030367 382.60593704239466 1955.1391933956113 105.03816834948971z" fill="rgba(28, 83, 142, 0.4)" class="triangle-float3"></path><path d="M1162.966,1183.402C1264.26,1186.585,1356.401,1125.613,1406.113,1037.299C1454.893,950.641,1450.822,845.548,1401.873,758.985C1352.108,670.979,1264.034,609.922,1162.966,607.308C1057.3,604.575,950.77,652.453,901.653,746.049C855.149,834.665,893.59,936.897,944.92,1022.807C994.543,1105.861,1066.265,1180.363,1162.966,1183.402" fill="rgba(28, 83, 142, 0.4)" class="triangle-float3"></path><path d="M391.55066282137756 723.7778947827018L427.43542575924937 909.3329475290399 553.9933968936753 803.138200627598z" fill="rgba(28, 83, 142, 0.4)" class="triangle-float2"></path><path d="M675.07636185296 1010.8613339539116L578.6910588447039 862.4409828248457 430.2707077156379 958.8262858331018 526.656010723894 1107.2466369621677z" fill="rgba(28, 83, 142, 0.4)" class="triangle-float2"></path><path d="M1534.8302102836224 358.6227626522345L1830.5097829324945 322.31787615658436 1498.5253237879722 62.94319000336236z" fill="rgba(28, 83, 142, 0.4)" class="triangle-float1"></path><path d="M1551.2573044186893 240.57281206396564L1573.229556050832 449.62482197205674 1782.2815659589228 427.6525703399142 1760.3093143267804 218.6005604318231z" fill="rgba(28, 83, 142, 0.4)" class="triangle-float1"></path><path d="M1675.061,446.243C1737.867,445.276,1793.435,406.578,1822.919,351.115C1850.683,298.887,1845.834,235.35,1813.497,185.823C1783.936,140.548,1729.114,123.268,1675.061,124.659C1623.733,125.98,1577.162,150.084,1548.443,192.646C1515.317,241.738,1492.643,302.808,1519.098,355.794C1547.871,413.422,1610.657,447.235,1675.061,446.243" fill="rgba(28, 83, 142, 0.4)" class="triangle-float3"></path><path d="M1034.6298928707788 749.7534771155692L1112.3982130335098 666.3571639418749 948.4195831916029 591.4028402846258z" fill="rgba(28, 83, 142, 0.4)" class="triangle-float2"></path><path d="M147.47630555638625 299.0415683774134L244.44397142614432 124.10726843116686 69.50967147989778 27.13960256140882-27.45799438986029 202.07390250765533z" fill="rgba(28, 83, 142, 0.4)" class="triangle-float1"></path><path d="M1476.931,904.122C1554.764,903.923,1615.537,844.204,1653.199,776.09C1689.466,710.5,1695.549,634.349,1663.577,566.562C1625.691,486.237,1565.73,400.906,1476.931,402.372C1389.408,403.817,1338.2,493.474,1300.662,572.552C1269.339,638.537,1264.812,712.498,1299.099,776.993C1335.759,845.952,1398.833,904.321,1476.931,904.122" fill="rgba(28, 83, 142, 0.4)" class="triangle-float3"></path><path d="M988.349,482.055C1016.907,482.483,1042.746,465.743,1056.907,440.94C1070.949,416.347,1073.062,385.054,1057.082,361.675C1042.591,340.474,1014.025,340.212,988.349,340.637C963.721,341.044,937.042,343.347,923.444,363.884C908.641,386.24,910.354,415.435,923.262,438.936C936.69,463.384,960.459,481.637,988.349,482.055" fill="rgba(28, 83, 142, 0.4)" class="triangle-float2"></path><path d="M429.0445019207852 491.22069178366115L548.1198482747826 689.3953475744005 746.294504065522 570.320001220403 627.2191577115245 372.14534542966373z" fill="rgba(28, 83, 142, 0.4)" class="triangle-float1"></path></g><defs><mask id="SvgjsMask1021"><rect width="1920" height="1000" fill="#ffffff"></rect></mask><style>
                @keyframes float1 {
                    0%{transform: translate(0, 0)}
                    50%{transform: translate(-10px, 0)}
                    100%{transform: translate(0, 0)}
                }

                .triangle-float1 {
                    animation: float1 5s infinite;
                }

                @keyframes float2 {
                    0%{transform: translate(0, 0)}
                    50%{transform: translate(-5px, -5px)}
                    100%{transform: translate(0, 0)}
                }

                .triangle-float2 {
                    animation: float2 4s infinite;
                }

                @keyframes float3 {
                    0%{transform: translate(0, 0)}
                    50%{transform: translate(0, -10px)}
                    100%{transform: translate(0, 0)}
                }

                .triangle-float3 {
                    animation: float3 6s infinite;
                }
            </style></defs></svg>