<svg xmlns="http://www.w3.org/2000/svg" version="1.1" xmlns:xlink="http://www.w3.org/1999/xlink" xmlns:svgjs="http://svgjs.dev/svgjs" width="1920" height="1000" preserveAspectRatio="none" viewBox="0 0 1920 1000"><g mask="url(&quot;#SvgjsMask1005&quot;)" fill="none"><path d="M1025.0376729147827 644.5501460937245L1099.961418900089 791.5962770762862 1247.007549882651 716.6725310909798 1172.0838038973443 569.626400108418z" fill="rgba(28, 83, 142, 0.4)" class="triangle-float1"></path><path d="M917.828,502.114C961.906,502.917,1010.722,496.03,1033.081,458.036C1055.656,419.675,1037.931,373.54,1016.429,334.567C993.913,293.757,964.414,250.615,917.828,249.142C869.496,247.614,830.39,285.215,807.802,327.971C786.773,367.777,785.576,415.908,809.622,453.967C832.223,489.738,875.522,501.344,917.828,502.114" fill="rgba(28, 83, 142, 0.4)" class="triangle-float3"></path><path d="M1303.2510181454531 587.3866393347964L1439.0992854581957 665.8186730367526 1517.5313191601517 529.9704057240101 1381.6830518474094 451.5383720220539z" fill="rgba(28, 83, 142, 0.4)" class="triangle-float1"></path><path d="M1280.757136629517 67.22184915295537L1386.6606142188984 230.29890383896668 1443.8341913155282-38.681628436426024z" fill="rgba(28, 83, 142, 0.4)" class="triangle-float1"></path><path d="M1323.14,436.54C1380.263,441.526,1442.702,422.919,1470.397,372.711C1497.467,323.635,1472.565,266.127,1443.611,218.138C1415.912,172.229,1376.737,130.134,1323.14,128.639C1267.349,127.083,1214.982,160.95,1190.437,211.076C1168.224,256.439,1188.937,306.851,1214.558,350.381C1239.677,393.058,1273.807,432.234,1323.14,436.54" fill="rgba(28, 83, 142, 0.4)" class="triangle-float1"></path><path d="M1527.3037656732604 852.060273439698L1608.996527695037 548.3368506342829 1342.2250980892013 614.850438393526z" fill="rgba(28, 83, 142, 0.4)" class="triangle-float2"></path><path d="M1931.762129381993 161.52119679373843L1758.270077596726 249.9198124633374 2020.160745051592 335.01324857900556z" fill="rgba(28, 83, 142, 0.4)" class="triangle-float1"></path><path d="M777.7111647584712 745.3410563488582L678.5105459660657 652.8349827707489 589.3517449951045 847.8889477484117z" fill="rgba(28, 83, 142, 0.4)" class="triangle-float1"></path><path d="M1260.4971745573807 569.1346468551413L1149.5020150416563 659.0167547929079 1339.8227567061683 780.5684400976113z" fill="rgba(28, 83, 142, 0.4)" class="triangle-float1"></path><path d="M1173.001,1110.152C1229.018,1106.566,1264.559,1055.892,1290.942,1006.346C1315.307,960.59,1328.994,907.986,1305.168,861.947C1279.498,812.344,1228.836,777.078,1173.001,778.449C1119.09,779.773,1079.426,821.969,1051.621,868.175C1022.643,916.331,1000.444,973.093,1025.644,1023.33C1053.041,1077.948,1112.022,1114.056,1173.001,1110.152" fill="rgba(28, 83, 142, 0.4)" class="triangle-float1"></path><path d="M127.62416082810847 17.900553537771323L8.28767033526944 111.13643827758197 207.80974269140495 243.5232316469352z" fill="rgba(28, 83, 142, 0.4)" class="triangle-float2"></path><path d="M470.463,991.055C529.861,992.325,594.327,984.426,626.946,934.769C662.241,881.039,656.638,811.15,625.634,754.836C593.419,696.323,537.257,650.276,470.463,650.544C404.053,650.811,348.22,697.228,317.437,756.074C288.885,810.655,291.541,876.7,325.156,928.317C356.013,975.7,413.931,989.846,470.463,991.055" fill="rgba(28, 83, 142, 0.4)" class="triangle-float3"></path><path d="M1738.558080675892 192.74100148237977L1849.1229354465022 329.54359768747634 1906.7228583515528 186.97878574739352z" fill="rgba(28, 83, 142, 0.4)" class="triangle-float2"></path><path d="M660.5149906377533-175.79307314701592L546.8199074118777 79.57026479040098 915.8783285751701-62.09798992114037z" fill="rgba(28, 83, 142, 0.4)" class="triangle-float2"></path><path d="M1166.4595900989054 931.0059556985501L1097.7129823010714 825.1454629695631 973.2955471065081 981.1956210308075z" fill="rgba(28, 83, 142, 0.4)" class="triangle-float1"></path><path d="M922.7143874415864 891.3456426278988L1125.2894261899016 813.5843708565146 1047.5281544185175 611.0093321081995 844.9531156702022 688.7706038795835z" fill="rgba(28, 83, 142, 0.4)" class="triangle-float3"></path><path d="M387.69458619185343 434.2592538360919L659.4079785492877 492.01371827528556 717.1624429884814 220.30032591785127 445.44905063104716 162.54586147865757z" fill="rgba(28, 83, 142, 0.4)" class="triangle-float2"></path><path d="M657.567131116477 247.21554307065327L709.4849650535148 397.9958811359649 909.6965551829633 244.72896119775243z" fill="rgba(28, 83, 142, 0.4)" class="triangle-float2"></path></g><defs><mask id="SvgjsMask1005"><rect width="1920" height="1000" fill="#ffffff"></rect></mask><style>
                @keyframes float1 {
                    0%{transform: translate(0, 0)}
                    50%{transform: translate(-10px, 0)}
                    100%{transform: translate(0, 0)}
                }

                .triangle-float1 {
                    animation: float1 5s infinite;
                }

                @keyframes float2 {
                    0%{transform: translate(0, 0)}
                    50%{transform: translate(-5px, -5px)}
                    100%{transform: translate(0, 0)}
                }

                .triangle-float2 {
                    animation: float2 4s infinite;
                }

                @keyframes float3 {
                    0%{transform: translate(0, 0)}
                    50%{transform: translate(0, -10px)}
                    100%{transform: translate(0, 0)}
                }

                .triangle-float3 {
                    animation: float3 6s infinite;
                }
            </style></defs></svg>